<svg width="43" height="43" viewBox="0 0 43 43" fill="none" xmlns="http://www.w3.org/2000/svg">
<g clip-path="url(#clip0_2856_1700)">
<path d="M29.3989 5.31973C25.7571 1.45494 19.3833 0.294974 14.6237 2.62746C13.2529 3.29912 11.991 4.18177 11.0297 5.38617C10.1101 6.53719 9.48777 7.86043 9.11025 9.28107C8.37416 12.0505 8.73986 15.0529 9.69324 17.7211C10.746 20.6682 12.4282 23.3414 14.057 25.9936C15.7903 28.8146 17.5366 31.6275 19.2783 34.4432C19.7097 35.1417 20.1473 35.8359 20.5849 36.5308C21.1096 37.3646 22.4022 37.6186 23.1938 37.0251C23.269 36.9686 23.339 36.9084 23.4041 36.8446C23.5881 36.9062 23.7978 36.89 23.9871 36.7518C26.246 35.1075 27.861 32.5937 29.1824 30.1645C30.5237 27.6987 31.4556 24.9659 32.0776 22.2325C32.716 19.425 33.0496 16.4514 32.838 13.5736C32.6113 10.4919 31.53 7.5812 29.3997 5.32047L29.3989 5.31973ZM29.5738 16.4798C29.5686 16.7933 29.5585 17.1063 29.5437 17.4197C29.5394 17.5073 29.5335 17.5942 29.5301 17.6817C29.5229 17.8536 29.5345 17.643 29.5369 17.5859C29.5313 17.7561 29.5129 17.928 29.4984 18.0972C29.4444 18.7528 29.3695 19.4059 29.2752 20.0564C29.0898 21.3347 28.8269 22.6007 28.4907 23.8471C28.322 24.4731 28.1304 25.0919 27.9282 25.7075C27.9029 25.7789 27.8783 25.8503 27.8529 25.921C27.8015 26.0655 27.7493 26.2101 27.6955 26.354C27.5812 26.6623 27.4621 26.9686 27.338 27.2735C26.3616 29.6786 25.215 32.0147 23.8486 34.2237C23.8013 34.3007 23.7564 34.3783 23.7107 34.4559C23.7016 34.4406 23.6925 34.4244 23.6827 34.4091C22.0178 31.7666 20.3199 29.1441 18.6321 26.5161C17.0293 24.0191 15.312 21.5637 13.9223 18.9373C13.8919 18.8802 13.7658 18.6303 13.7661 18.6343C13.713 18.5259 13.6591 18.4175 13.6075 18.3082C13.4539 17.985 13.3111 17.6563 13.1769 17.3245C12.9092 16.6609 12.6757 15.9829 12.4891 15.2912C12.4482 15.1396 12.4096 14.9877 12.3733 14.8349C12.3596 14.775 12.3458 14.7151 12.3321 14.656C12.2598 14.3423 12.3326 14.7096 12.3493 14.7428C12.2289 14.5062 12.2383 14.0923 12.2071 13.8286C12.1331 13.2156 12.1026 12.5963 12.1201 11.9784C12.1222 11.9166 12.1243 11.8556 12.1263 11.7938C12.1366 11.4727 12.1131 11.8444 12.1189 11.8816C12.0964 11.7534 12.1445 11.5851 12.1593 11.4535C12.1939 11.15 12.2407 10.848 12.3012 10.5483C12.3611 10.251 12.4347 9.95594 12.5215 9.66558C12.5319 9.63122 12.5745 9.54415 12.5755 9.50163C12.6241 9.37331 12.6734 9.24573 12.7277 9.11941C12.8383 8.86182 12.9612 8.60897 13.0966 8.36326C13.1646 8.23998 13.2419 8.12246 13.31 7.99998C13.31 7.99998 13.31 7.99998 13.3099 7.99918C13.3536 7.93767 13.3971 7.87536 13.4424 7.81454C13.6163 7.58215 13.8036 7.35924 14.0029 7.1483C14.1055 7.04021 14.2159 6.9396 14.3187 6.83231C14.3611 6.7877 14.3692 6.77833 14.3586 6.78628C14.4027 6.75436 14.4477 6.72399 14.4742 6.70292C14.7063 6.51611 14.9473 6.34149 15.1972 6.17987C15.3225 6.09903 15.4496 6.02047 15.5786 5.94578C15.6523 5.90299 15.7278 5.86328 15.8015 5.82049C15.8092 5.81595 15.8138 5.81322 15.8199 5.80959C16.3852 5.55464 16.9514 5.32525 17.5499 5.15766C17.6949 5.1171 17.84 5.07972 17.9862 5.04547C18.0247 5.03637 18.0538 5.02954 18.0774 5.02388C18.086 5.02248 18.0955 5.02101 18.1058 5.0187C18.4168 4.96572 18.7266 4.91842 19.0407 4.88765C19.5747 4.83669 20.1064 4.83315 20.6413 4.851C20.6823 4.85455 20.7232 4.85809 20.7642 4.86163C20.917 4.87657 21.0692 4.89396 21.2208 4.91459C21.5055 4.95314 21.7893 5.00296 22.0707 5.06257C22.3333 5.11788 22.5934 5.18218 22.8518 5.25541C22.965 5.28753 23.0777 5.32289 23.1904 5.35746C23.2462 5.37918 23.3065 5.39579 23.3615 5.41677C23.8979 5.61711 24.4194 5.85692 24.9197 6.13506C25.1483 6.26163 25.3683 6.43844 25.6043 6.54686C25.5309 6.51276 25.4846 6.49117 25.4565 6.47792C25.5086 6.5031 25.6106 6.55604 25.6635 6.59398C25.8023 6.69398 25.9381 6.7966 26.0717 6.90258C26.4845 7.23089 26.8628 7.59283 27.2251 7.97592C27.2556 8.01302 27.2869 8.04927 27.3175 8.08638C27.4014 8.18943 27.4829 8.29344 27.5631 8.39995C27.7462 8.6434 27.9172 8.89492 28.076 9.1553C28.15 9.27666 28.2217 9.39977 28.2902 9.52391C28.3132 9.56635 28.3377 9.60868 28.3607 9.65192C28.3646 9.66126 28.3685 9.6722 28.3751 9.68695C28.5086 10.0084 28.6567 10.3207 28.7747 10.6488C28.8846 10.9535 28.9822 11.263 29.0679 11.5757C29.1172 11.7548 29.1602 11.9352 29.204 12.1164C29.2164 12.1683 29.224 12.368 29.2169 12.1643C29.2084 11.9166 29.2413 12.2955 29.2507 12.3509C29.4949 13.7177 29.592 15.0947 29.5708 16.4824L29.5738 16.4798Z" fill="#F8F9FA"/>
<path d="M25.4608 6.47709C25.4137 6.45483 25.4253 6.45961 25.4608 6.47709V6.47709Z" fill="#F8F9FA"/>
<path d="M21.9428 9.37325C21.744 9.37514 21.5586 9.44256 21.4002 9.55214C21.3588 9.50859 21.3076 9.47293 21.2466 9.44596C20.5208 9.12994 19.794 9.01739 19.0229 9.24188C18.2934 9.45467 17.5819 9.91524 17.1332 10.5344C16.1294 11.9196 16.0766 13.8268 16.9979 15.2704C17.8645 16.6288 19.6164 17.4545 21.2145 17.2002C23.0101 16.9145 24.4843 15.6198 24.9773 13.8627C25.5495 11.8222 24.2074 9.35184 21.9436 9.3732L21.9428 9.37325ZM22.5978 13.1778C22.5991 13.1729 22.5814 13.2406 22.5723 13.2805C22.5589 13.3183 22.5364 13.3839 22.5377 13.3798C22.4781 13.5217 22.4093 13.6571 22.3323 13.7898C22.3323 13.7898 22.3324 13.7906 22.3316 13.7915C22.301 13.8328 22.2695 13.8743 22.2372 13.9142C22.1629 14.0059 22.0827 14.0924 21.9991 14.1759C21.9987 14.1711 21.8654 14.2861 21.8289 14.3127C21.7225 14.3898 21.6108 14.4609 21.4963 14.525C21.4435 14.5471 21.3908 14.57 21.3379 14.5905C21.2282 14.6326 21.1172 14.6668 21.0052 14.6986C21.0606 14.6796 20.8096 14.7339 20.7469 14.7399C20.6343 14.751 20.5227 14.7548 20.4101 14.7547C20.3641 14.7491 20.3174 14.7427 20.2713 14.7355C20.1582 14.717 20.0478 14.6911 19.9371 14.6612C19.9905 14.6719 19.7458 14.5881 19.6962 14.5643C19.5938 14.5162 19.495 14.4615 19.3974 14.4035C19.3546 14.3728 19.3125 14.3421 19.2711 14.3098C19.1764 14.2355 19.0877 14.1552 19.002 14.0707C19.035 14.0973 18.8719 13.9125 18.8417 13.8697C18.8089 13.8224 18.7783 13.7741 18.747 13.7258C18.7479 13.7273 18.7222 13.6795 18.7041 13.6487C18.6898 13.6161 18.6661 13.5633 18.667 13.5648C18.6463 13.5086 18.6249 13.454 18.6058 13.3977C18.5867 13.3414 18.57 13.2849 18.5532 13.2276C18.5365 13.1711 18.5295 13.1508 18.5274 13.1445C18.5294 13.15 18.5358 13.1616 18.5299 13.1107C18.5152 12.9924 18.5038 12.8747 18.5002 12.7548C18.4992 12.706 18.4981 12.6565 18.4995 12.6075C18.5004 12.5979 18.5027 12.5849 18.5047 12.5679C18.5196 12.45 18.5402 12.3332 18.5672 12.2176C18.6074 12.049 18.6016 12.0694 18.673 11.9139C18.861 11.5067 19.1829 11.1415 19.6113 10.9057C19.9906 10.6974 20.446 10.5286 20.8879 10.4969C20.882 11.0747 21.2509 11.4838 21.7968 11.649C21.6238 11.597 21.8761 11.6867 21.928 11.7087C21.9798 11.7307 22.0316 11.7519 22.0821 11.7772C22.097 11.7842 22.1637 11.8236 22.2027 11.8449C22.2246 11.8617 22.2482 11.8793 22.2508 11.8815C22.2918 11.9203 22.3352 11.9573 22.3771 11.9968C22.3779 11.9976 22.3788 11.9983 22.3796 11.9991C22.4193 12.0523 22.4559 12.1074 22.4956 12.1607C22.5203 12.195 22.535 12.2108 22.5434 12.2174C22.5451 12.2293 22.5497 12.2498 22.5601 12.2835C22.5819 12.3557 22.609 12.4235 22.6293 12.4965C22.6298 12.5037 22.6311 12.5108 22.6325 12.5195C22.6411 12.5854 22.6448 12.6508 22.6511 12.7168C22.6509 12.7144 22.6529 12.7768 22.6548 12.8167C22.652 12.8553 22.6481 12.9148 22.6481 12.9148C22.6351 13.003 22.6172 13.0892 22.5993 13.1761L22.5978 13.1778Z" fill="#F8F9FA"/>
<path d="M38.5879 33.2132C38.3023 32.2353 37.4905 31.5017 36.6251 31.0273C35.7463 30.5449 34.708 30.2844 33.7164 30.1768C32.5929 30.0551 31.3195 30.0072 30.2761 30.495C29.2505 30.9752 29.5065 32.4548 30.6817 32.4575C31.4406 32.4597 32.2894 32.3187 32.9886 32.3675C33.7085 32.4172 34.5304 32.588 35.0922 32.8202C35.2534 32.8866 35.412 32.9612 35.5656 33.0441C35.6336 33.081 35.701 33.1196 35.767 33.1598C35.7261 33.1354 35.6267 33.0503 35.8122 33.1903C35.9336 33.2819 36.0467 33.3789 36.1585 33.4824C36.3251 33.6373 36.2185 33.5511 36.1885 33.5115C36.2474 33.5875 36.3007 33.6646 36.3511 33.746C36.3212 33.7064 36.3945 33.8751 36.4323 33.971C36.4147 33.9706 36.438 34.2573 36.4528 34.1841C36.4222 34.4658 36.3005 34.7354 36.1868 34.8923C35.8233 35.3934 35.1742 35.7863 34.6615 36.0384C33.8923 36.4157 33.0952 36.7365 32.2855 37.0142C30.7144 37.5517 29.1208 37.9162 27.5159 38.199C23.9763 38.8229 20.3897 39.1634 16.7982 39.2728C15.2479 39.3203 13.872 39.3252 12.3972 39.0704C11.0381 38.8355 9.62854 38.4279 8.60307 37.5619C8.10727 37.1425 7.63682 36.6172 7.70578 35.9357C7.76053 35.3937 8.19175 34.8438 8.64513 34.4966C9.29945 33.9959 10.071 33.6753 10.86 33.4552C11.7758 33.1997 12.7279 33.21 13.6445 32.9762C13.9953 32.8868 14.0067 32.3414 13.6909 32.2009C12.8031 31.8065 11.805 31.8803 10.8662 32.0597C9.95185 32.2341 9.06936 32.5217 8.25262 32.9728C6.74374 33.8063 5.5819 35.3306 6.00778 37.1259C6.41999 38.8629 8.13532 39.9995 9.68241 40.6376C11.3866 41.3409 13.2487 41.5262 15.0749 41.5747C19.0856 41.6803 23.1462 41.265 27.0968 40.6011C29.0349 40.275 30.9728 39.8768 32.8407 39.2537C33.7648 38.9448 34.6706 38.5796 35.5436 38.1445C36.4049 37.7143 37.2706 37.2206 37.8738 36.4456C38.5928 35.5224 38.9244 34.3589 38.5895 33.2131L38.5879 33.2132Z" fill="#F8F9FA"/>
</g>
<defs>
<clipPath id="clip0_2856_1700">
<rect width="40" height="40" fill="white" transform="translate(0 2.79026) rotate(-4)"/>
</clipPath>
</defs>
</svg>
